<svg width="21" height="19" viewBox="0 0 21 19" fill="none" xmlns="http://www.w3.org/2000/svg">
<path d="M9.71749 2.85253C8.66599 2.85253 7.8121 3.68691 7.8121 4.71437C7.8121 5.74183 8.66599 6.57622 9.71749 6.57622C10.769 6.57622 11.6229 5.74183 11.6229 4.71437C11.6229 3.68691 10.769 2.85253 9.71749 2.85253ZM10.4796 9.4931C10.4796 9.08166 10.1386 8.74837 9.71749 8.74837C9.29642 8.74837 8.95533 9.08166 8.95533 9.4931C8.95533 9.90455 9.29642 10.2378 9.71749 10.2378C10.1386 10.2378 10.4796 9.90455 10.4796 9.4931ZM7.8121 14.2741C7.8121 15.3016 8.66599 16.136 9.71749 16.136C10.769 16.136 11.6229 15.3016 11.6229 14.2741C11.6229 13.2467 10.769 12.4123 9.71749 12.4123C8.66364 12.4123 7.8121 13.2444 7.8121 14.2741ZM12.7026 9.4931C12.7026 10.5206 13.5565 11.3549 14.608 11.3549C15.6595 11.3549 16.5134 10.5206 16.5134 9.4931C16.5134 8.46564 15.6595 7.63126 14.608 7.63126C13.5565 7.63126 12.7026 8.46564 12.7026 9.4931ZM2.91924 9.4931C2.91924 10.5206 3.77314 11.3549 4.82463 11.3549C5.87613 11.3549 6.73002 10.5206 6.73002 9.4931C6.73002 8.46564 5.87613 7.63126 4.82463 7.63126C3.77314 7.63126 2.91924 8.46564 2.91924 9.4931ZM20.9475 18.207C20.2418 16.706 18.6963 15.7245 17.005 15.7084C16.1182 15.6947 15.2596 15.9521 14.5233 16.4348C14.5186 16.4371 14.5162 16.4394 14.5115 16.4417C13.0931 17.3772 11.4347 17.8737 9.71749 17.8737C4.9893 17.8737 1.14323 14.1155 1.14323 9.4954C1.14323 4.87527 4.9893 1.11711 9.71749 1.11711C14.4457 1.11711 18.2917 4.87527 18.2917 9.4954C18.2917 10.9136 17.9224 12.3135 17.2261 13.5455C17.0732 13.8144 17.1744 14.1546 17.4496 14.304C17.7248 14.4534 18.073 14.3546 18.2259 14.0857C19.0163 12.6881 19.435 11.1021 19.435 9.4954C19.435 4.25925 15.0761 0 9.71749 0C4.35887 0 0 4.25925 0 9.4954C0 14.7316 4.35887 18.9908 9.71749 18.9908C11.6488 18.9908 13.5142 18.4368 15.1137 17.391C15.1184 17.3887 15.1255 17.3864 15.1302 17.3818C15.6807 17.0117 16.3252 16.8278 16.9956 16.8256C18.2447 16.837 19.3879 17.5634 19.9101 18.6736C20.0066 18.8782 20.2136 19 20.43 19C20.51 19 20.59 18.9839 20.6676 18.9494C20.9546 18.8184 21.0793 18.4874 20.9475 18.207Z" fill="#360033"/>
</svg>
