<svg width="202" height="74" viewBox="0 0 202 74" fill="none" xmlns="http://www.w3.org/2000/svg">
<path d="M22.08 32.36C22.08 34.0667 21.6667 35.52 20.84 36.72C20.0133 37.8933 18.8267 38.8 17.28 39.44C15.76 40.08 13.96 40.4 11.88 40.4C10.8133 40.4 9.78667 40.3467 8.8 40.24C7.84 40.1333 6.96 39.9867 6.16 39.8C5.36 39.5867 4.65333 39.3333 4.04 39.04V35.6C5 36.0267 6.18667 36.4133 7.6 36.76C9.04 37.1067 10.52 37.28 12.04 37.28C13.4533 37.28 14.64 37.0933 15.6 36.72C16.56 36.3467 17.28 35.8133 17.76 35.12C18.24 34.4267 18.48 33.6133 18.48 32.68C18.48 31.7467 18.28 30.96 17.88 30.32C17.48 29.68 16.7867 29.0933 15.8 28.56C14.84 28 13.4933 27.4133 11.76 26.8C10.5333 26.3467 9.45333 25.8667 8.52 25.36C7.61333 24.8267 6.85333 24.2267 6.24 23.56C5.62667 22.8933 5.16 22.1333 4.84 21.28C4.54667 20.4267 4.4 19.44 4.4 18.32C4.4 16.8 4.78667 15.5067 5.56 14.44C6.33333 13.3467 7.4 12.5067 8.76 11.92C10.1467 11.3333 11.7333 11.04 13.52 11.04C15.0933 11.04 16.5333 11.1867 17.84 11.48C19.1467 11.7733 20.3333 12.16 21.4 12.64L20.28 15.72C19.2933 15.2933 18.2133 14.9333 17.04 14.64C15.8933 14.3467 14.6933 14.2 13.44 14.2C12.24 14.2 11.24 14.3733 10.44 14.72C9.64 15.0667 9.04 15.56 8.64 16.2C8.24 16.8133 8.04 17.5333 8.04 18.36C8.04 19.32 8.24 20.12 8.64 20.76C9.04 21.4 9.69333 21.9733 10.6 22.48C11.5067 22.9867 12.7333 23.5333 14.28 24.12C15.96 24.7333 17.3733 25.4 18.52 26.12C19.6933 26.8133 20.5733 27.6533 21.16 28.64C21.7733 29.6267 22.08 30.8667 22.08 32.36ZM23.9931 18.56H27.7531L32.3931 30.76C32.6598 31.48 32.8998 32.1733 33.1131 32.84C33.3531 33.5067 33.5665 34.16 33.7531 34.8C33.9398 35.4133 34.0865 36.0133 34.1931 36.6H34.3531C34.5131 35.9333 34.7665 35.0667 35.1131 34C35.4598 32.9067 35.8198 31.8133 36.1931 30.72L40.5531 18.56H44.3531L35.1131 42.96C34.6065 44.2933 34.0065 45.4533 33.3131 46.44C32.6465 47.4533 31.8198 48.2267 30.8331 48.76C29.8731 49.32 28.6998 49.6 27.3131 49.6C26.6731 49.6 26.1131 49.56 25.6331 49.48C25.1531 49.4267 24.7398 49.36 24.3931 49.28V46.48C24.6865 46.5333 25.0331 46.5867 25.4331 46.64C25.8598 46.6933 26.2998 46.72 26.7531 46.72C27.5798 46.72 28.2865 46.56 28.8731 46.24C29.4865 45.9467 30.0065 45.5067 30.4331 44.92C30.8598 44.36 31.2198 43.6933 31.5131 42.92L32.6331 40.08L23.9931 18.56ZM58.0638 18.16C60.6238 18.16 62.5571 18.7867 63.8638 20.04C65.1704 21.2667 65.8238 23.2667 65.8238 26.04V40H62.3438V26.28C62.3438 24.5467 61.9571 23.2533 61.1838 22.4C60.4104 21.5467 59.1971 21.12 57.5438 21.12C55.1704 21.12 53.5304 21.7867 52.6238 23.12C51.7171 24.4533 51.2638 26.3733 51.2638 28.88V40H47.7438V18.56H50.5838L51.1038 21.48H51.3038C51.7838 20.7333 52.3704 20.12 53.0638 19.64C53.7838 19.1333 54.5704 18.76 55.4238 18.52C56.2771 18.28 57.1571 18.16 58.0638 18.16ZM81.0703 40.4C79.177 40.4 77.4836 40.0133 75.9903 39.24C74.5236 38.4667 73.3636 37.2667 72.5103 35.64C71.6836 34.0133 71.2703 31.9333 71.2703 29.4C71.2703 26.76 71.7103 24.6133 72.5903 22.96C73.4703 21.3067 74.657 20.0933 76.1503 19.32C77.6703 18.5467 79.3903 18.16 81.3103 18.16C82.4036 18.16 83.457 18.28 84.4703 18.52C85.4836 18.7333 86.3103 19 86.9503 19.32L85.8703 22.24C85.2303 22 84.4836 21.7733 83.6303 21.56C82.777 21.3467 81.977 21.24 81.2303 21.24C79.7903 21.24 78.6036 21.5467 77.6703 22.16C76.737 22.7733 76.0436 23.68 75.5903 24.88C75.137 26.08 74.9103 27.5733 74.9103 29.36C74.9103 31.0667 75.137 32.52 75.5903 33.72C76.0436 34.92 76.7236 35.8267 77.6303 36.44C78.537 37.0533 79.6703 37.36 81.0303 37.36C82.2036 37.36 83.2303 37.24 84.1103 37C85.017 36.76 85.8436 36.4667 86.5903 36.12V39.24C85.8703 39.6133 85.0703 39.8933 84.1903 40.08C83.337 40.2933 82.297 40.4 81.0703 40.4ZM114.809 40H110.609L95.3291 16.28H95.1691C95.1957 16.76 95.2224 17.2933 95.2491 17.88C95.3024 18.4667 95.3424 19.1067 95.3691 19.8C95.3957 20.4667 95.4224 21.16 95.4491 21.88C95.4757 22.6 95.4891 23.32 95.4891 24.04V40H92.1691V11.44H96.3291L111.569 35.08H111.729C111.702 34.76 111.676 34.32 111.649 33.76C111.622 33.1733 111.596 32.5333 111.569 31.84C111.542 31.12 111.516 30.3867 111.489 29.64C111.462 28.8933 111.449 28.2 111.449 27.56V11.44H114.809V40ZM130.36 18.16C132.2 18.16 133.773 18.56 135.08 19.36C136.413 20.16 137.426 21.2933 138.12 22.76C138.84 24.2 139.2 25.8933 139.2 27.84V29.96H124.52C124.573 32.3867 125.186 34.24 126.36 35.52C127.56 36.7733 129.226 37.4 131.36 37.4C132.72 37.4 133.92 37.28 134.96 37.04C136.026 36.7733 137.12 36.4 138.24 35.92V39C137.146 39.48 136.066 39.8267 135 40.04C133.933 40.28 132.666 40.4 131.2 40.4C129.173 40.4 127.373 39.9867 125.8 39.16C124.253 38.3333 123.04 37.1067 122.16 35.48C121.306 33.8267 120.88 31.8133 120.88 29.44C120.88 27.0933 121.266 25.08 122.04 23.4C122.84 21.72 123.946 20.4267 125.36 19.52C126.8 18.6133 128.466 18.16 130.36 18.16ZM130.32 21.04C128.64 21.04 127.306 21.5867 126.32 22.68C125.36 23.7467 124.786 25.24 124.6 27.16H135.52C135.52 25.9333 135.333 24.8667 134.96 23.96C134.586 23.0533 134.013 22.3467 133.24 21.84C132.493 21.3067 131.52 21.04 130.32 21.04ZM168.178 18.16C170.604 18.16 172.418 18.7867 173.618 20.04C174.818 21.2667 175.418 23.2667 175.418 26.04V40H171.938V26.2C171.938 24.52 171.578 23.2533 170.858 22.4C170.164 21.5467 169.071 21.12 167.578 21.12C165.498 21.12 164.004 21.72 163.098 22.92C162.218 24.12 161.778 25.8667 161.778 28.16V40H158.298V26.2C158.298 25.08 158.138 24.1467 157.818 23.4C157.498 22.6267 157.018 22.0533 156.378 21.68C155.738 21.3067 154.911 21.12 153.898 21.12C152.458 21.12 151.324 21.4267 150.498 22.04C149.671 22.6267 149.071 23.4933 148.698 24.64C148.351 25.7867 148.178 27.2 148.178 28.88V40H144.658V18.56H147.498L148.018 21.48H148.218C148.671 20.7333 149.218 20.12 149.858 19.64C150.524 19.1333 151.258 18.76 152.058 18.52C152.858 18.28 153.684 18.16 154.538 18.16C156.191 18.16 157.564 18.4533 158.658 19.04C159.778 19.6267 160.591 20.5333 161.098 21.76H161.298C162.018 20.5333 162.991 19.6267 164.218 19.04C165.471 18.4533 166.791 18.16 168.178 18.16ZM190.161 18.2C192.774 18.2 194.707 18.7733 195.961 19.92C197.214 21.0667 197.841 22.8933 197.841 25.4V40H195.281L194.601 36.96H194.441C193.827 37.7333 193.187 38.3867 192.521 38.92C191.881 39.4267 191.134 39.8 190.281 40.04C189.454 40.28 188.441 40.4 187.241 40.4C185.961 40.4 184.801 40.1733 183.761 39.72C182.747 39.2667 181.947 38.5733 181.361 37.64C180.774 36.68 180.481 35.48 180.481 34.04C180.481 31.9067 181.321 30.2667 183.001 29.12C184.681 27.9467 187.267 27.3067 190.761 27.2L194.401 27.08V25.8C194.401 24.0133 194.014 22.7733 193.241 22.08C192.467 21.3867 191.374 21.04 189.961 21.04C188.841 21.04 187.774 21.2133 186.761 21.56C185.747 21.88 184.801 22.2533 183.921 22.68L182.841 20.04C183.774 19.5333 184.881 19.1067 186.161 18.76C187.441 18.3867 188.774 18.2 190.161 18.2ZM191.201 29.64C188.534 29.7467 186.681 30.1733 185.641 30.92C184.627 31.6667 184.121 32.72 184.121 34.08C184.121 35.28 184.481 36.16 185.201 36.72C185.947 37.28 186.894 37.56 188.041 37.56C189.854 37.56 191.361 37.0667 192.561 36.08C193.761 35.0667 194.361 33.52 194.361 31.44V29.52L191.201 29.64Z" fill="#360033"/>
<path d="M20.84 36.72L21.6575 37.296L21.6635 37.2873L20.84 36.72ZM17.28 39.44L16.8976 38.516L16.8919 38.5184L17.28 39.44ZM8.8 40.24L8.68957 41.2339L8.69252 41.2342L8.8 40.24ZM6.16 39.8L5.90234 40.7662L5.91749 40.7703L5.93277 40.7738L6.16 39.8ZM4.04 39.04H3.04V39.6702L3.60854 39.9421L4.04 39.04ZM4.04 35.6L4.44614 34.6862L3.04 34.0612V35.6H4.04ZM7.6 36.76L7.36178 37.7312L7.36595 37.7322L7.6 36.76ZM15.6 36.72L15.2376 35.788L15.2376 35.788L15.6 36.72ZM17.76 35.12L16.9378 34.5508L16.9378 34.5508L17.76 35.12ZM17.88 30.32L17.032 30.85L17.032 30.85L17.88 30.32ZM15.8 28.56L15.2961 29.4238L15.3102 29.432L15.3245 29.4397L15.8 28.56ZM11.76 26.8L11.4133 27.7381L11.4264 27.7427L11.76 26.8ZM8.52 25.36L8.01298 26.2219L8.0278 26.2307L8.04291 26.2389L8.52 25.36ZM4.84 21.28L3.89431 21.6051L3.89881 21.6182L3.90367 21.6311L4.84 21.28ZM5.56 14.44L6.36967 15.027L6.37642 15.0175L5.56 14.44ZM8.76 11.92L8.37035 10.999L8.36391 11.0018L8.76 11.92ZM17.84 11.48L18.059 10.5043L18.059 10.5043L17.84 11.48ZM21.4 12.64L22.3398 12.9817L22.6571 12.1091L21.8104 11.7281L21.4 12.64ZM20.28 15.72L19.8831 16.6379L20.8571 17.0591L21.2198 16.0617L20.28 15.72ZM17.04 14.64L16.7922 15.6088L16.7975 15.6101L17.04 14.64ZM8.64 16.2L9.47761 16.7463L9.48288 16.7382L9.488 16.73L8.64 16.2ZM8.64 20.76L9.488 20.23L9.488 20.23L8.64 20.76ZM10.6 22.48L10.1122 23.3529L10.1122 23.3529L10.6 22.48ZM14.28 24.12L13.9253 25.0551L13.9371 25.0594L14.28 24.12ZM18.52 26.12L17.9882 26.9669L17.9997 26.9741L18.0113 26.9809L18.52 26.12ZM21.16 28.64L20.3005 29.1511L20.3055 29.1596L20.3107 29.1679L21.16 28.64ZM21.08 32.36C21.08 33.8996 20.7096 35.1466 20.0165 36.1527L21.6635 37.2873C22.6238 35.8934 23.08 34.2337 23.08 32.36H21.08ZM20.0225 36.144C19.3221 37.1382 18.2989 37.9362 16.8976 38.516L17.6624 40.364C19.3545 39.6638 20.7046 38.6485 21.6575 37.296L20.0225 36.144ZM16.8919 38.5184C15.5223 39.095 13.8603 39.4 11.88 39.4V41.4C14.0597 41.4 15.9977 41.065 17.6681 40.3616L16.8919 38.5184ZM11.88 39.4C10.8466 39.4 9.85592 39.3483 8.90748 39.2458L8.69252 41.2342C9.71742 41.345 10.7801 41.4 11.88 41.4V39.4ZM8.91043 39.2461C7.9831 39.1431 7.14274 39.0024 6.38723 38.8262L5.93277 40.7738C6.77726 40.9709 7.6969 41.1236 8.68957 41.2339L8.91043 39.2461ZM6.41766 38.8338C5.66505 38.6331 5.01847 38.3995 4.47146 38.1379L3.60854 39.9421C4.28819 40.2672 5.05495 40.5403 5.90234 40.7662L6.41766 38.8338ZM5.04 39.04V35.6H3.04V39.04H5.04ZM3.63386 36.5138C4.6642 36.9717 5.91109 37.3754 7.36178 37.7312L7.83822 35.7888C6.46224 35.4513 5.3358 35.0816 4.44614 34.6862L3.63386 36.5138ZM7.36595 37.7322C8.88459 38.0978 10.4432 38.28 12.04 38.28V36.28C10.5968 36.28 9.19541 36.1155 7.83405 35.7878L7.36595 37.7322ZM12.04 38.28C13.5343 38.28 14.8526 38.0836 15.9624 37.652L15.2376 35.788C14.4274 36.1031 13.3724 36.28 12.04 36.28V38.28ZM15.9624 37.652C17.0668 37.2225 17.9656 36.5799 18.5822 35.6892L16.9378 34.5508C16.5944 35.0468 16.0532 35.4708 15.2376 35.788L15.9624 37.652ZM18.5822 35.6892C19.1902 34.8109 19.48 33.7941 19.48 32.68H17.48C17.48 33.4326 17.2898 34.0424 16.9378 34.5508L18.5822 35.6892ZM19.48 32.68C19.48 31.6035 19.2485 30.6227 18.728 29.79L17.032 30.85C17.3116 31.2973 17.48 31.8898 17.48 32.68H19.48ZM18.728 29.79C18.2022 28.9487 17.3458 28.2588 16.2755 27.6803L15.3245 29.4397C16.2275 29.9278 16.7578 30.4113 17.032 30.85L18.728 29.79ZM16.3039 27.6962C15.2661 27.0909 13.8531 26.4799 12.0936 25.8573L11.4264 27.7427C13.1336 28.3468 14.4139 28.9091 15.2961 29.4238L16.3039 27.6962ZM12.1067 25.862C10.915 25.4216 9.88012 24.9605 8.99709 24.4811L8.04291 26.2389C9.02655 26.7728 10.1517 27.2717 11.4134 27.738L12.1067 25.862ZM9.02702 24.4981C8.19199 24.0069 7.51275 23.4664 6.97593 22.8829L5.50407 24.2371C6.19392 24.9869 7.03468 25.6465 8.01298 26.2219L9.02702 24.4981ZM6.97593 22.8829C6.45029 22.3116 6.05141 21.6624 5.77633 20.9289L3.90367 21.6311C4.26859 22.6042 4.80304 23.4751 5.50407 24.2371L6.97593 22.8829ZM5.78569 20.9549C5.53579 20.2279 5.4 19.355 5.4 18.32H3.4C3.4 19.525 3.55754 20.6254 3.89431 21.6051L5.78569 20.9549ZM5.4 18.32C5.4 16.9772 5.73839 15.8976 6.36961 15.027L4.75039 13.853C3.83494 15.1157 3.4 16.6228 3.4 18.32H5.4ZM6.37642 15.0175C7.03259 14.0898 7.94641 13.36 9.15609 12.8382L8.36391 11.0018C6.85359 11.6533 5.63408 12.6036 4.74358 13.8625L6.37642 15.0175ZM9.14964 12.841C10.3923 12.3152 11.8426 12.04 13.52 12.04V10.04C11.624 10.04 9.90107 10.3514 8.37036 10.999L9.14964 12.841ZM13.52 12.04C15.0321 12.04 16.3974 12.181 17.621 12.4557L18.059 10.5043C16.6693 10.1923 15.1546 10.04 13.52 10.04V12.04ZM17.621 12.4557C18.8711 12.7364 19.9925 13.1032 20.9896 13.5519L21.8104 11.7281C20.6742 11.2168 19.4222 10.8103 18.059 10.5043L17.621 12.4557ZM20.4602 12.2983L19.3402 15.3783L21.2198 16.0617L22.3398 12.9817L20.4602 12.2983ZM20.6769 14.8021C19.6346 14.3514 18.5022 13.9748 17.2825 13.6699L16.7975 15.6101C17.9244 15.8919 18.9521 16.2353 19.8831 16.6379L20.6769 14.8021ZM17.2878 13.6712C16.0556 13.356 14.772 13.2 13.44 13.2V15.2C14.6147 15.2 15.7311 15.3374 16.7922 15.6088L17.2878 13.6712ZM13.44 13.2C12.1514 13.2 11.0057 13.385 10.0424 13.8024L10.8376 15.6376C11.4743 15.3616 12.3286 15.2 13.44 15.2V13.2ZM10.0424 13.8024C9.0862 14.2168 8.31538 14.8326 7.792 15.67L9.488 16.73C9.76462 16.2874 10.1938 15.9165 10.8376 15.6376L10.0424 13.8024ZM7.80239 15.6537C7.28316 16.4499 7.04 17.3651 7.04 18.36H9.04C9.04 17.7015 9.19684 17.1768 9.47761 16.7463L7.80239 15.6537ZM7.04 18.36C7.04 19.457 7.26895 20.4531 7.792 21.29L9.488 20.23C9.21105 19.7869 9.04 19.183 9.04 18.36H7.04ZM7.792 21.29C8.30855 22.1165 9.11115 22.7935 10.1122 23.3529L11.0878 21.6071C10.2755 21.1531 9.77145 20.6835 9.488 20.23L7.792 21.29ZM10.1122 23.3529C11.0791 23.8933 12.3563 24.4598 13.9253 25.055L14.6347 23.185C13.1104 22.6068 11.9343 22.0801 11.0878 21.6071L10.1122 23.3529ZM13.9371 25.0594C15.5707 25.6558 16.9165 26.294 17.9882 26.9669L19.0518 25.2731C17.8301 24.506 16.3493 23.8109 14.6229 23.1806L13.9371 25.0594ZM18.0113 26.9809C19.0672 27.6049 19.8143 28.3334 20.3005 29.1511L22.0195 28.1289C21.3324 26.9733 20.3195 26.0218 19.0287 25.2591L18.0113 26.9809ZM20.3107 29.1679C20.8011 29.9568 21.08 31.0008 21.08 32.36H23.08C23.08 30.7326 22.7456 29.2965 22.0093 28.1121L20.3107 29.1679ZM23.9931 18.56V17.56H22.5141L23.0651 18.9326L23.9931 18.56ZM27.7531 18.56L28.6878 18.2045L28.4427 17.56H27.7531V18.56ZM32.3931 30.76L33.3309 30.4127L33.3278 30.4045L32.3931 30.76ZM33.1131 32.84L32.1607 33.1448L32.1662 33.1619L32.1722 33.1787L33.1131 32.84ZM33.7531 34.8L32.7931 35.08L32.7965 35.0912L33.7531 34.8ZM34.1931 36.6L33.2093 36.7789L33.3585 37.6H34.1931V36.6ZM34.3531 36.6V37.6H35.1415L35.3255 36.8334L34.3531 36.6ZM35.1131 34L36.0642 34.3091L36.0664 34.3022L35.1131 34ZM36.1931 30.72L35.2518 30.3825L35.2492 30.3897L35.2468 30.3969L36.1931 30.72ZM40.5531 18.56V17.56H39.8493L39.6118 18.2225L40.5531 18.56ZM44.3531 18.56L45.2883 18.9141L45.8011 17.56H44.3531V18.56ZM35.1131 42.96L36.0479 43.3152L36.0483 43.3141L35.1131 42.96ZM33.3131 46.44L32.4949 45.8651L32.4861 45.8776L32.4777 45.8904L33.3131 46.44ZM30.8331 48.76L30.3576 47.8803L30.3433 47.888L30.3293 47.8962L30.8331 48.76ZM25.6331 49.48L25.7975 48.4936L25.7706 48.4891L25.7436 48.4861L25.6331 49.48ZM24.3931 49.28H23.3931V50.0755L24.1683 50.2544L24.3931 49.28ZM24.3931 46.48L24.572 45.4961L23.3931 45.2818V46.48H24.3931ZM25.4331 46.64L25.301 47.6313L25.3091 47.6323L25.4331 46.64ZM28.8731 46.24L28.4417 45.3379L28.4176 45.3494L28.3943 45.3621L28.8731 46.24ZM30.4331 44.92L29.6377 44.314L29.6309 44.3228L29.6244 44.3318L30.4331 44.92ZM31.5131 42.92L30.5828 42.5531L30.5781 42.5653L31.5131 42.92ZM32.6331 40.08L33.5634 40.4469L33.7094 40.0767L33.5611 39.7074L32.6331 40.08ZM23.9931 19.56H27.7531V17.56H23.9931V19.56ZM26.8184 18.9155L31.4584 31.1155L33.3278 30.4045L28.6878 18.2045L26.8184 18.9155ZM31.4554 31.1073C31.7173 31.8146 31.9524 32.4937 32.1607 33.1448L34.0655 32.5352C33.8472 31.853 33.6023 31.1454 33.3309 30.4127L31.4554 31.1073ZM32.1722 33.1787C32.4057 33.8272 32.6126 34.461 32.7931 35.08L34.7131 34.52C34.5203 33.859 34.3006 33.1861 34.054 32.5013L32.1722 33.1787ZM32.7965 35.0912C32.9727 35.6704 33.11 36.2328 33.2093 36.7789L35.177 36.4211C35.0629 35.7938 34.9069 35.1563 34.7098 34.5088L32.7965 35.0912ZM34.1931 37.6H34.3531V35.6H34.1931V37.6ZM35.3255 36.8334C35.4768 36.203 35.7212 35.3643 36.0642 34.3091L34.1621 33.6909C33.8117 34.769 33.5495 35.6636 33.3807 36.3666L35.3255 36.8334ZM36.0664 34.3022C36.4108 33.216 36.7685 32.1296 37.1395 31.0431L35.2468 30.3969C34.8711 31.4971 34.5088 32.5974 34.1599 33.6978L36.0664 34.3022ZM37.1344 31.0575L41.4944 18.8975L39.6118 18.2225L35.2518 30.3825L37.1344 31.0575ZM40.5531 19.56H44.3531V17.56H40.5531V19.56ZM43.4179 18.2059L34.1779 42.6059L36.0483 43.3141L45.2883 18.9141L43.4179 18.2059ZM34.1783 42.6048C33.696 43.874 33.1326 44.9576 32.4949 45.8651L34.1313 47.0149C34.8803 45.9491 35.5169 44.7126 36.0479 43.3152L34.1783 42.6048ZM32.4777 45.8904C31.8943 46.7772 31.1872 47.4319 30.3576 47.8803L31.3086 49.6397C32.4524 49.0215 33.3986 48.1295 34.1485 46.9896L32.4777 45.8904ZM30.3293 47.8962C29.5558 48.3474 28.5661 48.6 27.3131 48.6V50.6C28.8335 50.6 30.1905 50.2926 31.337 49.6238L30.3293 47.8962ZM27.3131 48.6C26.7121 48.6 26.2093 48.5622 25.7975 48.4936L25.4687 50.4664C26.0169 50.5578 26.6341 50.6 27.3131 50.6V48.6ZM25.7436 48.4861C25.2895 48.4357 24.9163 48.3745 24.618 48.3056L24.1683 50.2544C24.5633 50.3455 25.0168 50.4177 25.5227 50.4739L25.7436 48.4861ZM25.3931 49.28V46.48H23.3931V49.28H25.3931ZM24.2142 47.4639C24.5274 47.5208 24.8904 47.5765 25.301 47.6312L25.5653 45.6488C25.1759 45.5968 24.8455 45.5459 24.572 45.4961L24.2142 47.4639ZM25.3091 47.6323C25.7791 47.691 26.2606 47.72 26.7531 47.72V45.72C26.339 45.72 25.9405 45.6956 25.5572 45.6477L25.3091 47.6323ZM26.7531 47.72C27.708 47.72 28.5875 47.5349 29.352 47.1179L28.3943 45.3621C27.9854 45.5851 27.4516 45.72 26.7531 45.72V47.72ZM29.3046 47.1421C30.0778 46.7723 30.7242 46.2199 31.2419 45.5082L29.6244 44.3318C29.2887 44.7934 28.8951 45.121 28.4417 45.3379L29.3046 47.1421ZM31.2286 45.526C31.7228 44.8774 32.1264 44.1228 32.4481 43.2747L30.5781 42.5653C30.3132 43.2639 29.9968 43.8426 29.6377 44.314L31.2286 45.526ZM32.4434 43.2869L33.5634 40.4469L31.7029 39.7131L30.5829 42.5531L32.4434 43.2869ZM33.5611 39.7074L24.9211 18.1874L23.0651 18.9326L31.7051 40.4526L33.5611 39.7074ZM63.8638 20.04L63.1715 20.7617L63.1793 20.7691L63.8638 20.04ZM65.8238 40V41H66.8238V40H65.8238ZM62.3438 40H61.3438V41H62.3438V40ZM61.1838 22.4L61.9247 21.7285L61.9247 21.7285L61.1838 22.4ZM52.6238 23.12L53.4507 23.6823L53.4507 23.6823L52.6238 23.12ZM51.2638 40V41H52.2638V40H51.2638ZM47.7438 40H46.7438V41H47.7438V40ZM47.7438 18.56V17.56H46.7438V18.56H47.7438ZM50.5838 18.56L51.5683 18.3847L51.4214 17.56H50.5838V18.56ZM51.1038 21.48L50.1192 21.6553L50.2661 22.48H51.1038V21.48ZM51.3038 21.48V22.48H51.8497L52.1449 22.0208L51.3038 21.48ZM53.0638 19.64L53.633 20.4622L53.6392 20.4578L53.0638 19.64ZM58.0638 19.16C60.473 19.16 62.1163 19.7495 63.1715 20.7617L64.556 19.3183C62.9979 17.8238 60.7745 17.16 58.0638 17.16V19.16ZM63.1793 20.7691C64.197 21.7245 64.8238 23.3939 64.8238 26.04H66.8238C66.8238 23.1395 66.1438 20.8088 64.5482 19.3109L63.1793 20.7691ZM64.8238 26.04V40H66.8238V26.04H64.8238ZM65.8238 39H62.3438V41H65.8238V39ZM63.3438 40V26.28H61.3438V40H63.3438ZM63.3438 26.28C63.3438 24.4204 62.9317 22.8396 61.9247 21.7285L60.4428 23.0715C60.9825 23.6671 61.3438 24.6729 61.3438 26.28H63.3438ZM61.9247 21.7285C60.8913 20.5882 59.3538 20.12 57.5438 20.12V22.12C59.0404 22.12 59.9295 22.5052 60.4428 23.0715L61.9247 21.7285ZM57.5438 20.12C55.0054 20.12 52.9668 20.8371 51.7968 22.5577L53.4507 23.6823C54.094 22.7363 55.3354 22.12 57.5438 22.12V20.12ZM51.7968 22.5577C50.7308 24.1254 50.2638 26.2759 50.2638 28.88H52.2638C52.2638 26.4708 52.7034 24.7812 53.4507 23.6823L51.7968 22.5577ZM50.2638 28.88V40H52.2638V28.88H50.2638ZM51.2638 39H47.7438V41H51.2638V39ZM48.7438 40V18.56H46.7438V40H48.7438ZM47.7438 19.56H50.5838V17.56H47.7438V19.56ZM49.5992 18.7353L50.1192 21.6553L52.0883 21.3047L51.5683 18.3847L49.5992 18.7353ZM51.1038 22.48H51.3038V20.48H51.1038V22.48ZM52.1449 22.0208C52.5575 21.379 53.0536 20.8633 53.633 20.4622L52.4945 18.8178C51.6873 19.3767 51.01 20.0877 50.4626 20.9392L52.1449 22.0208ZM53.6392 20.4578C54.266 20.0168 54.9495 19.6922 55.6945 19.4827L55.153 17.5573C54.1914 17.8278 53.3015 18.2499 52.4883 18.8222L53.6392 20.4578ZM55.6945 19.4827C56.4577 19.268 57.2465 19.16 58.0638 19.16V17.16C57.0677 17.16 56.0965 17.292 55.153 17.5573L55.6945 19.4827ZM75.9903 39.24L75.5239 40.1246L75.5305 40.128L75.9903 39.24ZM72.5103 35.64L71.6188 36.0931L71.6248 36.1045L72.5103 35.64ZM72.5903 22.96L73.4731 23.4298L73.4731 23.4298L72.5903 22.96ZM76.1503 19.32L75.6968 18.4287L75.6905 18.432L76.1503 19.32ZM84.4703 18.52L84.2398 19.4931L84.252 19.496L84.2643 19.4985L84.4703 18.52ZM86.9503 19.32L87.8882 19.6669L88.1991 18.8264L87.3975 18.4256L86.9503 19.32ZM85.8703 22.24L85.5192 23.1763L86.4598 23.529L86.8082 22.5869L85.8703 22.24ZM83.6303 21.56L83.8728 20.5899L83.8728 20.5899L83.6303 21.56ZM75.5903 24.88L74.6548 24.5266L74.6548 24.5266L75.5903 24.88ZM75.5903 33.72L74.6548 34.0734L74.6548 34.0734L75.5903 33.72ZM77.6303 36.44L78.1906 35.6117L78.1906 35.6117L77.6303 36.44ZM84.1103 37L83.8544 36.0333L83.8472 36.0352L84.1103 37ZM86.5903 36.12H87.5903V34.5532L86.1692 35.213L86.5903 36.12ZM86.5903 39.24L87.0506 40.1278L87.5903 39.8479V39.24H86.5903ZM84.1903 40.08L83.9828 39.1018L83.9652 39.1055L83.9478 39.1099L84.1903 40.08ZM81.0703 39.4C79.3166 39.4 77.7843 39.0429 76.4502 38.352L75.5305 40.128C77.183 40.9838 79.0373 41.4 81.0703 41.4V39.4ZM76.4567 38.3554C75.1882 37.6866 74.1658 36.6431 73.3959 35.1755L71.6248 36.1045C72.5615 37.8902 73.8591 39.2468 75.5239 40.1246L76.4567 38.3554ZM73.4018 35.1869C72.6687 33.7444 72.2703 31.8336 72.2703 29.4H70.2703C70.2703 32.0331 70.6986 34.2823 71.6188 36.093L73.4018 35.1869ZM72.2703 29.4C72.2703 26.8607 72.6951 24.8915 73.4731 23.4298L71.7076 22.4901C70.7255 24.3352 70.2703 26.6593 70.2703 29.4H72.2703ZM73.4731 23.4298C74.2691 21.9343 75.3172 20.8776 76.6102 20.208L75.6905 18.432C73.9968 19.3091 72.6716 20.679 71.7076 22.4901L73.4731 23.4298ZM76.6038 20.2113C77.9665 19.518 79.5279 19.16 81.3103 19.16V17.16C79.2527 17.16 77.3742 17.5754 75.6969 18.4287L76.6038 20.2113ZM81.3103 19.16C82.3299 19.16 83.3057 19.2718 84.2398 19.4931L84.7008 17.5469C83.6083 17.2882 82.4774 17.16 81.3103 17.16V19.16ZM84.2643 19.4985C85.2277 19.7014 85.9653 19.9455 86.5031 20.2144L87.3975 18.4256C86.6553 18.0545 85.7395 17.7653 84.6763 17.5414L84.2643 19.4985ZM86.0124 18.9731L84.9324 21.8931L86.8082 22.5869L87.8882 19.6669L86.0124 18.9731ZM86.2214 21.3037C85.5375 21.0472 84.7532 20.8099 83.8728 20.5899L83.3878 22.5301C84.2141 22.7367 84.9231 22.9528 85.5192 23.1763L86.2214 21.3037ZM83.8728 20.5899C82.9538 20.3601 82.0717 20.24 81.2303 20.24V22.24C81.8823 22.24 82.6001 22.3332 83.3878 22.5301L83.8728 20.5899ZM81.2303 20.24C79.6511 20.24 78.2587 20.5767 77.1211 21.3243L78.2195 22.9957C78.9485 22.5166 79.9296 22.24 81.2303 22.24V20.24ZM77.1211 21.3243C75.9859 22.0703 75.1713 23.1596 74.6548 24.5266L76.5258 25.2334C76.916 24.2004 77.488 23.4764 78.2195 22.9957L77.1211 21.3243ZM74.6548 24.5266C74.1457 25.8744 73.9103 27.4965 73.9103 29.36H75.9103C75.9103 27.6501 76.1283 26.2856 76.5258 25.2334L74.6548 24.5266ZM73.9103 29.36C73.9103 31.1498 74.1473 32.73 74.6548 34.0734L76.5258 33.3666C76.1266 32.31 75.9103 30.9835 75.9103 29.36H73.9103ZM74.6548 34.0734C75.1683 35.4325 75.9643 36.5203 77.07 37.2683L78.1906 35.6117C77.483 35.133 76.919 34.4075 76.5258 33.3666L74.6548 34.0734ZM77.07 37.2683C78.1783 38.018 79.5193 38.36 81.0303 38.36V36.36C79.8214 36.36 78.8957 36.0887 78.1906 35.6117L77.07 37.2683ZM81.0303 38.36C82.2686 38.36 83.3873 38.2337 84.3734 37.9648L83.8472 36.0352C83.0733 36.2463 82.1387 36.36 81.0303 36.36V38.36ZM84.3662 37.9667C85.3219 37.7137 86.2048 37.4015 87.0114 37.027L86.1692 35.213C85.4825 35.5318 84.712 35.8063 83.8544 36.0333L84.3662 37.9667ZM85.5903 36.12V39.24H87.5903V36.12H85.5903ZM86.13 38.3522C85.498 38.68 84.7843 38.9317 83.9828 39.1018L84.3978 41.0582C85.3563 40.8549 86.2427 40.5467 87.0506 40.1278L86.13 38.3522ZM83.9478 39.1099C83.198 39.2973 82.2447 39.4 81.0703 39.4V41.4C82.3493 41.4 83.4759 41.2894 84.4328 41.0501L83.9478 39.1099ZM114.809 40V41H115.809V40H114.809ZM110.609 40L109.768 40.5415L110.064 41H110.609V40ZM95.3291 16.28L96.1697 15.7385L95.8744 15.28H95.3291V16.28ZM95.1691 16.28V15.28H94.112L94.1706 16.3355L95.1691 16.28ZM95.2491 17.88L94.2501 17.9254L94.2511 17.948L94.2532 17.9705L95.2491 17.88ZM95.3691 19.8L94.3698 19.8384L94.3699 19.84L95.3691 19.8ZM95.4491 21.88L94.4497 21.917L94.4497 21.917L95.4491 21.88ZM95.4891 40V41H96.4891V40H95.4891ZM92.1691 40H91.1691V41H92.1691V40ZM92.1691 11.44V10.44H91.1691V11.44H92.1691ZM96.3291 11.44L97.1695 10.8982L96.8742 10.44H96.3291V11.44ZM111.569 35.08L110.729 35.6218L111.024 36.08H111.569V35.08ZM111.729 35.08V36.08H112.816L112.726 34.997L111.729 35.08ZM111.649 33.76L110.65 33.8054L110.65 33.8076L111.649 33.76ZM111.569 31.84L110.57 31.877L110.57 31.8784L111.569 31.84ZM111.449 11.44V10.44H110.449V11.44H111.449ZM114.809 11.44H115.809V10.44H114.809V11.44ZM114.809 39H110.609V41H114.809V39ZM111.45 39.4585L96.1697 15.7385L94.4884 16.8215L109.768 40.5415L111.45 39.4585ZM95.3291 15.28H95.1691V17.28H95.3291V15.28ZM94.1706 16.3355C94.197 16.8115 94.2235 17.3414 94.2501 17.9254L96.248 17.8346C96.2212 17.2453 96.1944 16.7085 96.1675 16.2245L94.1706 16.3355ZM94.2532 17.9705C94.3047 18.5371 94.3437 19.1595 94.3698 19.8384L96.3683 19.7616C96.3411 19.0538 96.3001 18.3962 96.245 17.7895L94.2532 17.9705ZM94.3699 19.84C94.3965 20.5056 94.4231 21.1979 94.4497 21.917L96.4484 21.843C96.4217 21.1221 96.395 20.4278 96.3683 19.76L94.3699 19.84ZM94.4497 21.917C94.476 22.6247 94.4891 23.3323 94.4891 24.04H96.4891C96.4891 23.3077 96.4755 22.5753 96.4484 21.843L94.4497 21.917ZM94.4891 24.04V40H96.4891V24.04H94.4891ZM95.4891 39H92.1691V41H95.4891V39ZM93.1691 40V11.44H91.1691V40H93.1691ZM92.1691 12.44H96.3291V10.44H92.1691V12.44ZM95.4886 11.9818L110.729 35.6218L112.41 34.5382L97.1695 10.8982L95.4886 11.9818ZM111.569 36.08H111.729V34.08H111.569V36.08ZM112.726 34.997C112.7 34.6943 112.674 34.2679 112.648 33.7124L110.65 33.8076C110.677 34.3721 110.704 34.8257 110.733 35.163L112.726 34.997ZM112.648 33.7146C112.621 33.1306 112.595 32.493 112.568 31.8016L110.57 31.8784C110.597 32.5737 110.623 33.216 110.65 33.8054L112.648 33.7146ZM112.568 31.803C112.542 31.0834 112.515 30.3506 112.488 29.6043L110.49 29.6757C110.516 30.4228 110.543 31.1566 110.57 31.877L112.568 31.803ZM112.488 29.6043C112.462 28.8676 112.449 28.1863 112.449 27.56H110.449C110.449 28.2137 110.463 28.919 110.49 29.6757L112.488 29.6043ZM112.449 27.56V11.44H110.449V27.56H112.449ZM111.449 12.44H114.809V10.44H111.449V12.44ZM113.809 11.44V40H115.809V11.44H113.809ZM135.08 19.36L134.558 20.2129L134.565 20.2175L135.08 19.36ZM138.12 22.76L137.216 23.1874L137.22 23.1973L137.225 23.2072L138.12 22.76ZM139.2 29.96V30.96H140.2V29.96H139.2ZM124.52 29.96V28.96H123.497L123.52 29.982L124.52 29.96ZM126.36 35.52L125.623 36.1957L125.63 36.2037L125.637 36.2116L126.36 35.52ZM134.96 37.04L135.185 38.0144L135.193 38.0123L135.202 38.0101L134.96 37.04ZM138.24 35.92H139.24V34.4035L137.846 35.0009L138.24 35.92ZM138.24 39L138.642 39.9156L139.24 39.6531V39H138.24ZM135 40.04L134.804 39.0594L134.792 39.0618L134.78 39.0644L135 40.04ZM125.8 39.16L125.328 40.042L125.335 40.0452L125.8 39.16ZM122.16 35.48L121.271 35.9386L121.276 35.9473L121.28 35.9558L122.16 35.48ZM122.04 23.4L121.137 22.97L121.131 22.9819L122.04 23.4ZM125.36 19.52L124.827 18.6737L124.82 18.6783L125.36 19.52ZM126.32 22.68L125.577 22.01L125.576 22.011L126.32 22.68ZM124.6 27.16L123.604 27.0632L123.498 28.16H124.6V27.16ZM135.52 27.16V28.16H136.52V27.16H135.52ZM134.96 23.96L134.035 24.3407L134.035 24.3407L134.96 23.96ZM133.24 21.84L132.658 22.6537L132.675 22.6654L132.692 22.6765L133.24 21.84ZM130.36 19.16C132.053 19.16 133.437 19.5268 134.558 20.2129L135.602 18.5071C134.109 17.5932 132.347 17.16 130.36 17.16V19.16ZM134.565 20.2175C135.721 20.9112 136.603 21.8913 137.216 23.1874L139.024 22.3326C138.25 20.6954 137.105 19.4088 135.594 18.5025L134.565 20.2175ZM137.225 23.2072C137.863 24.4823 138.2 26.0165 138.2 27.84H140.2C140.2 25.7701 139.817 23.9177 139.014 22.3128L137.225 23.2072ZM138.2 27.84V29.96H140.2V27.84H138.2ZM139.2 28.96H124.52V30.96H139.2V28.96ZM123.52 29.982C123.576 32.5551 124.23 34.6768 125.623 36.1957L127.097 34.8443C126.142 33.8032 125.57 32.2183 125.519 29.938L123.52 29.982ZM125.637 36.2116C127.068 37.7055 129.021 38.4 131.36 38.4V36.4C129.432 36.4 128.052 35.8411 127.082 34.8284L125.637 36.2116ZM131.36 38.4C132.776 38.4 134.054 38.2753 135.185 38.0144L134.735 36.0656C133.785 36.2847 132.664 36.4 131.36 36.4V38.4ZM135.202 38.0101C136.326 37.7292 137.47 37.3379 138.634 36.8391L137.846 35.0009C136.77 35.4621 135.727 35.8174 134.717 36.0699L135.202 38.0101ZM137.24 35.92V39H139.24V35.92H137.24ZM137.838 38.0844C136.804 38.5381 135.793 38.8615 134.804 39.0594L135.196 41.0206C136.34 40.7918 137.489 40.4219 138.642 39.9156L137.838 38.0844ZM134.78 39.0644C133.805 39.2838 132.616 39.4 131.2 39.4V41.4C132.717 41.4 134.061 41.2762 135.219 41.0156L134.78 39.0644ZM131.2 39.4C129.312 39.4 127.676 39.0161 126.265 38.2748L125.335 40.0452C127.07 40.9573 129.034 41.4 131.2 41.4V39.4ZM126.271 38.2781C124.907 37.549 123.831 36.4683 123.039 35.0042L121.28 35.9558C122.248 37.745 123.599 39.1177 125.328 40.0419L126.271 38.2781ZM123.048 35.0214C122.286 33.5435 121.88 31.6965 121.88 29.44H119.88C119.88 31.9301 120.327 34.1098 121.271 35.9386L123.048 35.0214ZM121.88 29.44C121.88 27.2002 122.249 25.3367 122.948 23.8181L121.131 22.9819C120.284 24.8233 119.88 26.9865 119.88 29.44H121.88ZM122.943 23.8299C123.671 22.2996 124.66 21.157 125.9 20.3617L124.82 18.6783C123.233 19.6964 122.008 21.1404 121.137 22.9701L122.943 23.8299ZM125.893 20.3662C127.155 19.5711 128.633 19.16 130.36 19.16V17.16C128.3 17.16 126.444 17.6556 124.827 18.6738L125.893 20.3662ZM130.32 20.04C128.401 20.04 126.781 20.676 125.577 22.01L127.062 23.35C127.832 22.4973 128.879 22.04 130.32 22.04V20.04ZM125.576 22.011C124.431 23.2833 123.805 25.0029 123.604 27.0632L125.595 27.2568C125.768 25.4771 126.288 24.2101 127.063 23.349L125.576 22.011ZM124.6 28.16H135.52V26.16H124.6V28.16ZM136.52 27.16C136.52 25.8344 136.318 24.6329 135.884 23.5792L134.035 24.3407C134.348 25.1005 134.52 26.0323 134.52 27.16H136.52ZM135.884 23.5792C135.439 22.4981 134.74 21.6275 133.788 21.0035L132.692 22.6765C133.286 23.0658 133.734 23.6086 134.035 24.3407L135.884 23.5792ZM133.821 21.0263C132.859 20.3394 131.664 20.04 130.32 20.04V22.04C131.375 22.04 132.127 22.274 132.658 22.6537L133.821 21.0263ZM173.618 20.04L172.895 20.7316L172.903 20.7393L173.618 20.04ZM175.418 40V41H176.418V40H175.418ZM171.938 40H170.938V41H171.938V40ZM170.858 22.4L170.082 23.0306L170.088 23.0378L170.094 23.0449L170.858 22.4ZM163.098 22.92L162.3 22.3172L162.296 22.3229L162.291 22.3286L163.098 22.92ZM161.778 40V41H162.778V40H161.778ZM158.298 40H157.298V41H158.298V40ZM157.818 23.4L156.894 23.7824L156.899 23.7939L157.818 23.4ZM156.378 21.68L156.882 20.8162L156.882 20.8162L156.378 21.68ZM150.498 22.04L151.077 22.8555L151.085 22.8494L151.094 22.8431L150.498 22.04ZM148.698 24.64L147.747 24.3304L147.744 24.3405L147.741 24.3506L148.698 24.64ZM148.178 40V41H149.178V40H148.178ZM144.658 40H143.658V41H144.658V40ZM144.658 18.56V17.56H143.658V18.56H144.658ZM147.498 18.56L148.482 18.3847L148.335 17.56H147.498V18.56ZM148.018 21.48L147.033 21.6553L147.18 22.48H148.018V21.48ZM148.218 21.48V22.48H148.781L149.073 21.999L148.218 21.48ZM149.858 19.64L150.458 20.44L150.463 20.4362L149.858 19.64ZM158.658 19.04L158.185 19.9212L158.194 19.9258L158.658 19.04ZM161.098 21.76L160.174 22.1418L160.429 22.76H161.098V21.76ZM161.298 21.76V22.76H161.87L162.16 22.2662L161.298 21.76ZM164.218 19.04L163.794 18.1343L163.786 18.1379L164.218 19.04ZM168.178 19.16C170.443 19.16 171.949 19.7432 172.896 20.7316L174.34 19.3484C172.886 17.8301 170.766 17.16 168.178 17.16V19.16ZM172.903 20.7393C173.835 21.6923 174.418 23.3742 174.418 26.04H176.418C176.418 23.1591 175.8 20.8411 174.333 19.3407L172.903 20.7393ZM174.418 26.04V40H176.418V26.04H174.418ZM175.418 39H171.938V41H175.418V39ZM172.938 40V26.2H170.938V40H172.938ZM172.938 26.2C172.938 24.3987 172.555 22.8605 171.622 21.7551L170.094 23.0449C170.601 23.6461 170.938 24.6413 170.938 26.2H172.938ZM171.634 21.7694C170.689 20.606 169.258 20.12 167.578 20.12V22.12C168.885 22.12 169.64 22.4873 170.082 23.0306L171.634 21.7694ZM167.578 20.12C165.313 20.12 163.461 20.7799 162.3 22.3172L163.896 23.5228C164.547 22.6601 165.683 22.12 167.578 22.12V20.12ZM162.291 22.3286C161.234 23.7705 160.778 25.7619 160.778 28.16H162.778C162.778 25.9714 163.202 24.4695 163.904 23.5114L162.291 22.3286ZM160.778 28.16V40H162.778V28.16H160.778ZM161.778 39H158.298V41H161.778V39ZM159.298 40V26.2H157.298V40H159.298ZM159.298 26.2C159.298 24.9926 159.126 23.9148 158.737 23.0061L156.899 23.7939C157.149 24.3785 157.298 25.1674 157.298 26.2H159.298ZM158.742 23.0176C158.35 22.0697 157.735 21.3139 156.882 20.8162L155.874 22.5438C156.301 22.7928 156.646 23.1836 156.894 23.7824L158.742 23.0176ZM156.882 20.8162C156.043 20.3267 155.026 20.12 153.898 20.12V22.12C154.797 22.12 155.433 22.2866 155.874 22.5438L156.882 20.8162ZM153.898 20.12C152.327 20.12 150.958 20.4536 149.902 21.2369L151.094 22.8431C151.691 22.3997 152.589 22.12 153.898 22.12V20.12ZM149.919 21.2245C148.886 21.9577 148.174 23.0194 147.747 24.3304L149.649 24.9496C149.969 23.9673 150.456 23.2956 151.077 22.8555L149.919 21.2245ZM147.741 24.3506C147.357 25.6204 147.178 27.1381 147.178 28.88H149.178C149.178 27.2619 149.346 25.9529 149.655 24.9294L147.741 24.3506ZM147.178 28.88V40H149.178V28.88H147.178ZM148.178 39H144.658V41H148.178V39ZM145.658 40V18.56H143.658V40H145.658ZM144.658 19.56H147.498V17.56H144.658V19.56ZM146.513 18.7353L147.033 21.6553L149.002 21.3047L148.482 18.3847L146.513 18.7353ZM148.018 22.48H148.218V20.48H148.018V22.48ZM149.073 21.999C149.466 21.3513 149.929 20.8367 150.458 20.44L149.258 18.84C148.507 19.4033 147.876 20.1153 147.363 20.961L149.073 21.999ZM150.463 20.4362C151.034 20.0018 151.66 19.6833 152.345 19.4778L151.77 17.5622C150.855 17.8367 150.015 18.2649 149.253 18.8438L150.463 20.4362ZM152.345 19.4778C153.05 19.2664 153.78 19.16 154.538 19.16V17.16C153.589 17.16 152.666 17.2936 151.77 17.5622L152.345 19.4778ZM154.538 19.16C156.079 19.16 157.277 19.4341 158.185 19.9212L159.131 18.1588C157.852 17.4725 156.303 17.16 154.538 17.16V19.16ZM158.194 19.9258C159.095 20.3979 159.752 21.1202 160.174 22.1418L162.022 21.3782C161.431 19.9464 160.461 18.8554 159.122 18.1542L158.194 19.9258ZM161.098 22.76H161.298V20.76H161.098V22.76ZM162.16 22.2662C162.784 21.2032 163.611 20.4387 164.649 19.9421L163.786 18.1379C162.371 18.8147 161.251 19.8635 160.435 21.2538L162.16 22.2662ZM164.642 19.9457C165.762 19.4213 166.937 19.16 168.178 19.16V17.16C166.645 17.16 165.18 17.4854 163.794 18.1343L164.642 19.9457ZM195.961 19.92L196.636 19.1822L196.636 19.1822L195.961 19.92ZM197.841 40V41H198.841V40H197.841ZM195.281 40L194.305 40.2183L194.48 41H195.281V40ZM194.601 36.96L195.577 36.7417L195.402 35.96H194.601V36.96ZM194.441 36.96V35.96H193.957L193.657 36.3386L194.441 36.96ZM192.521 38.92L193.141 39.7041L193.145 39.7009L192.521 38.92ZM190.281 40.04L190.01 39.0773L190.002 39.0797L190.281 40.04ZM183.761 39.72L183.352 40.6329L183.361 40.6367L183.761 39.72ZM181.361 37.64L180.507 38.1615L180.514 38.1722L181.361 37.64ZM183.001 29.12L183.564 29.946L183.573 29.9398L183.001 29.12ZM190.761 27.2L190.791 28.1995L190.794 28.1995L190.761 27.2ZM194.401 27.08L194.434 28.0795L195.401 28.0476V27.08H194.401ZM193.241 22.08L192.573 22.8246L192.573 22.8246L193.241 22.08ZM186.761 21.56L187.062 22.5136L187.073 22.51L187.084 22.5062L186.761 21.56ZM183.921 22.68L182.995 23.0586L183.398 24.0445L184.357 23.5798L183.921 22.68ZM182.841 20.04L182.364 19.1611L181.576 19.5889L181.915 20.4186L182.841 20.04ZM186.161 18.76L186.422 19.7252L186.431 19.7227L186.441 19.72L186.161 18.76ZM191.201 29.64L191.163 28.6407L191.161 28.6408L191.201 29.64ZM185.641 30.92L185.057 30.1076L185.047 30.1149L185.641 30.92ZM185.201 36.72L184.587 37.5094L184.594 37.5147L184.601 37.52L185.201 36.72ZM192.561 36.08L193.196 36.8525L193.206 36.844L192.561 36.08ZM194.361 29.52H195.361V28.4813L194.323 28.5207L194.361 29.52ZM190.161 19.2C192.654 19.2 194.294 19.7507 195.286 20.6578L196.636 19.1822C195.12 17.796 192.894 17.2 190.161 17.2V19.2ZM195.286 20.6578C196.25 21.5401 196.841 23.0393 196.841 25.4H198.841C198.841 22.7473 198.178 20.5933 196.636 19.1822L195.286 20.6578ZM196.841 25.4V40H198.841V25.4H196.841ZM197.841 39H195.281V41H197.841V39ZM196.257 39.7817L195.577 36.7417L193.625 37.1783L194.305 40.2183L196.257 39.7817ZM194.601 35.96H194.441V37.96H194.601V35.96ZM193.657 36.3386C193.083 37.0619 192.496 37.6594 191.896 38.1391L193.145 39.7009C193.879 39.1139 194.571 38.4048 195.224 37.5814L193.657 36.3386ZM191.9 38.136C191.372 38.5537 190.747 38.8701 190.01 39.0773L190.551 41.0027C191.521 40.7299 192.389 40.2996 193.141 39.704L191.9 38.136ZM190.002 39.0797C189.294 39.2853 188.38 39.4 187.241 39.4V41.4C188.501 41.4 189.614 41.2747 190.559 41.0003L190.002 39.0797ZM187.241 39.4C186.081 39.4 185.059 39.1951 184.16 38.8033L183.361 40.6367C184.542 41.1516 185.841 41.4 187.241 41.4V39.4ZM184.169 38.8072C183.335 38.434 182.688 37.8725 182.207 37.1078L180.514 38.1722C181.207 39.2742 182.16 40.0993 183.352 40.6328L184.169 38.8072ZM182.214 37.1185C181.747 36.3539 181.481 35.3468 181.481 34.04H179.481C179.481 35.6132 179.801 37.0061 180.507 38.1614L182.214 37.1185ZM181.481 34.04C181.481 32.218 182.173 30.8957 183.564 29.9459L182.437 28.294C180.468 29.6376 179.481 31.5954 179.481 34.04H181.481ZM183.573 29.9398C185.017 28.9315 187.37 28.304 190.791 28.1995L190.73 26.2005C187.164 26.3093 184.344 26.9618 182.428 28.3002L183.573 29.9398ZM190.794 28.1995L194.434 28.0795L194.368 26.0805L190.728 26.2005L190.794 28.1995ZM195.401 27.08V25.8H193.401V27.08H195.401ZM195.401 25.8C195.401 23.9232 195.004 22.3178 193.908 21.3354L192.573 22.8246C193.024 23.2289 193.401 24.1034 193.401 25.8H195.401ZM193.908 21.3354C192.894 20.4262 191.531 20.04 189.961 20.04V22.04C191.217 22.04 192.041 22.3471 192.573 22.8246L193.908 21.3354ZM189.961 20.04C188.736 20.04 187.559 20.2299 186.437 20.6138L187.084 22.5062C187.989 22.1968 188.946 22.04 189.961 22.04V20.04ZM186.459 20.6064C185.404 20.9398 184.412 21.3306 183.484 21.7802L184.357 23.5798C185.19 23.1761 186.091 22.8202 187.062 22.5136L186.459 20.6064ZM184.846 22.3014L183.766 19.6614L181.915 20.4186L182.995 23.0586L184.846 22.3014ZM183.318 20.9189C184.168 20.4571 185.199 20.0564 186.422 19.7252L185.899 17.7948C184.562 18.157 183.38 18.6096 182.364 19.1611L183.318 20.9189ZM186.441 19.72C187.626 19.3742 188.865 19.2 190.161 19.2V17.2C188.683 17.2 187.255 17.3991 185.881 17.8L186.441 19.72ZM191.161 28.6408C188.47 28.7484 186.354 29.1767 185.057 30.1077L186.224 31.7323C187.007 31.1699 188.598 30.7449 191.241 30.6392L191.161 28.6408ZM185.047 30.1149C183.755 31.0671 183.121 32.432 183.121 34.08H185.121C185.121 33.008 185.499 32.2663 186.234 31.7251L185.047 30.1149ZM183.121 34.08C183.121 35.4832 183.55 36.7034 184.587 37.5094L185.815 35.9306C185.411 35.6166 185.121 35.0768 185.121 34.08H183.121ZM184.601 37.52C185.557 38.2372 186.728 38.56 188.041 38.56V36.56C187.06 36.56 186.338 36.3228 185.801 35.92L184.601 37.52ZM188.041 38.56C190.045 38.56 191.788 38.0101 193.196 36.8524L191.926 35.3076C190.934 36.1232 189.663 36.56 188.041 36.56V38.56ZM193.206 36.844C194.698 35.5836 195.361 33.7128 195.361 31.44H193.361C193.361 33.3272 192.823 34.5497 191.915 35.316L193.206 36.844ZM195.361 31.44V29.52H193.361V31.44H195.361ZM194.323 28.5207L191.163 28.6407L191.239 30.6393L194.399 30.5193L194.323 28.5207Z" fill="#360033"/>
<rect y="51" width="201" height="3" fill="#E8E0E8"/>
<rect x="92" y="59" width="109" height="3" fill="#E8E0E8"/>
<path d="M79.7175 57.8525C78.666 57.8525 77.8121 58.6869 77.8121 59.7144C77.8121 60.7418 78.666 61.5762 79.7175 61.5762C80.769 61.5762 81.6229 60.7418 81.6229 59.7144C81.6229 58.6869 80.769 57.8525 79.7175 57.8525ZM80.4796 64.4931C80.4796 64.0817 80.1386 63.7484 79.7175 63.7484C79.2964 63.7484 78.9553 64.0817 78.9553 64.4931C78.9553 64.9045 79.2964 65.2378 79.7175 65.2378C80.1386 65.2378 80.4796 64.9045 80.4796 64.4931ZM77.8121 69.2741C77.8121 70.3016 78.666 71.136 79.7175 71.136C80.769 71.136 81.6229 70.3016 81.6229 69.2741C81.6229 68.2467 80.769 67.4123 79.7175 67.4123C78.6636 67.4123 77.8121 68.2444 77.8121 69.2741ZM82.7026 64.4931C82.7026 65.5206 83.5565 66.3549 84.608 66.3549C85.6595 66.3549 86.5134 65.5206 86.5134 64.4931C86.5134 63.4656 85.6595 62.6313 84.608 62.6313C83.5565 62.6313 82.7026 63.4656 82.7026 64.4931ZM72.9192 64.4931C72.9192 65.5206 73.7731 66.3549 74.8246 66.3549C75.8761 66.3549 76.73 65.5206 76.73 64.4931C76.73 63.4656 75.8761 62.6313 74.8246 62.6313C73.7731 62.6313 72.9192 63.4656 72.9192 64.4931ZM90.9475 73.207C90.2418 71.706 88.6963 70.7245 87.005 70.7084C86.1182 70.6947 85.2596 70.9521 84.5233 71.4348C84.5186 71.4371 84.5162 71.4394 84.5115 71.4417C83.0931 72.3772 81.4347 72.8737 79.7175 72.8737C74.9893 72.8737 71.1432 69.1155 71.1432 64.4954C71.1432 59.8753 74.9893 56.1171 79.7175 56.1171C84.4457 56.1171 88.2917 59.8753 88.2917 64.4954C88.2917 65.9136 87.9224 67.3135 87.2261 68.5455C87.0732 68.8144 87.1744 69.1546 87.4496 69.304C87.7248 69.4534 88.073 69.3546 88.2259 69.0857C89.0163 67.6881 89.435 66.1021 89.435 64.4954C89.435 59.2593 85.0761 55 79.7175 55C74.3589 55 70 59.2593 70 64.4954C70 69.7316 74.3589 73.9908 79.7175 73.9908C81.6488 73.9908 83.5142 73.4368 85.1137 72.391C85.1184 72.3887 85.1255 72.3864 85.1302 72.3818C85.6807 72.0117 86.3252 71.8278 86.9956 71.8256C88.2447 71.837 89.3879 72.5634 89.9101 73.6736C90.0066 73.8782 90.2136 74 90.43 74C90.51 74 90.59 73.9839 90.6676 73.9494C90.9546 73.8184 91.0793 73.4874 90.9475 73.207Z" fill="#360033"/>
</svg>
