<svg xmlns="http://www.w3.org/2000/svg" x="0px" y="0px" width="100" height="100" viewBox="0 0 100 100">
<path fill="#f1bc19" d="M77,12c-0.552,0-1,0.448-1,1s0.448,1,1,1s1-0.448,1-1S77.552,12,77,12z"></path><path fill="#e6edb7" d="M50,13c-20.435,0-37,16.565-37,37s16.565,37,37,37s37-16.565,37-37S70.435,13,50,13z"></path><path fill="#f1bc19" d="M83,11c-2.209,0-4,1.791-4,4s1.791,4,4,4s4-1.791,4-4S85.209,11,83,11z"></path><path fill="#88ae45" d="M87,22c-1.105,0-2,0.895-2,2s0.895,2,2,2s2-0.895,2-2S88.105,22,87,22z"></path><path fill="#fbcd59" d="M81,74c-1.105,0-2,0.895-2,2s0.895,2,2,2s2-0.895,2-2S82.105,74,81,74z M15,59 c-2.209,0-4,1.791-4,4c0,2.209,1.791,4,4,4s4-1.791,4-4C19,60.791,17.209,59,15,59z"></path><path fill="#88ae45" d="M25,85c-1.105,0-2,0.895-2,2s0.895,2,2,2s2-0.895,2-2S26.105,85,25,85z"></path><path fill="#fff" d="M18.5,49c-1.381,0-2.5,1.119-2.5,2.5s1.119,2.5,2.5,2.5s2.5-1.119,2.5-2.5S19.881,49,18.5,49z M79.5,32c-0.828,0-1.5,0.672-1.5,1.5s0.672,1.5,1.5,1.5s1.5-0.672,1.5-1.5S80.328,32,79.5,32z"></path><path fill="none" d="M57.887,46.756c-2.838,0.647-5.903,1.72-8.766,2.882l2.479,2.479 C53.604,50.362,55.704,48.572,57.887,46.756z"></path><path fill="none" d="M49.122,49.638c-3.779,1.534-7.199,3.222-9.278,4.298l4.65,4.65c2.187-2.081,4.568-4.245,7.107-6.469 L49.122,49.638z"></path><path fill="#e4273e" d="M32.8,71.454l-1.711,5.638L49.91,64.002l-5.417-5.417C39.403,63.429,35.358,67.821,32.8,71.454z"></path><polygon fill="#ef9922" points="80.595,41.135 57.562,40.665 50.005,18.898 45.348,32.288 65.577,52.517"></polygon><path fill="#e4273e" d="M19.405,41.126l18.354,13.919c0,0,0.78-0.435,2.085-1.11L26.882,40.974L19.405,41.126z"></path><path fill="#ee4267" d="M40.186,40.702l-13.304,0.272l12.962,12.962c2.079-1.076,5.499-2.764,9.278-4.298L40.186,40.702z"></path><path fill="#f47c22" d="M65.577,52.517L45.348,32.288l-2.91,8.367l-2.253,0.046l8.936,8.936 c2.863-1.162,5.928-2.235,8.766-2.882c-2.184,1.816-4.284,3.606-6.287,5.361l13.977,13.977l-3.336-11.047L65.577,52.517z"></path><path fill="#ee4267" d="M44.494,58.585l5.417,5.417l0.085-0.059l18.906,13.159l-3.325-11.009L51.6,52.116 C49.061,54.34,46.681,56.504,44.494,58.585z"></path><path fill="#472b29" d="M68.902,77.802c-0.14,0-0.28-0.042-0.4-0.126L49.996,64.795L31.489,77.667 c-0.245,0.172-0.57,0.168-0.812-0.008s-0.345-0.484-0.258-0.77l1.71-5.639c0.021-0.071,0.055-0.139,0.098-0.2 c4.007-5.689,11.854-13.537,22.779-22.791c-3.893,1.199-7.897,2.935-10.833,4.317l0,0c-3.533,1.664-6.048,3.065-6.073,3.08 c-0.242,0.136-0.543,0.115-0.764-0.054l-18.354-13.92c-0.238-0.18-0.335-0.49-0.243-0.774c0.092-0.283,0.354-0.477,0.651-0.483 l22.547-0.46l7.406-21.297c0.098-0.282,0.363-0.471,0.661-0.471l0,0c0.298,0,0.563,0.189,0.661,0.471l7.397,21.307l22.546,0.46 c0.298,0.007,0.56,0.2,0.651,0.484c0.092,0.283-0.005,0.594-0.243,0.773L63.052,55.31l6.52,21.59 c0.086,0.285-0.018,0.594-0.259,0.769C69.19,77.757,69.046,77.802,68.902,77.802z M49.996,63.242c0.14,0,0.28,0.042,0.4,0.126 L67.65,75.377l-6.079-20.129c-0.085-0.28,0.014-0.583,0.247-0.76l16.749-12.693l-21.02-0.43c-0.293-0.006-0.551-0.194-0.647-0.471 l-6.896-19.863L43.1,40.885c-0.096,0.277-0.354,0.465-0.647,0.471l-21.021,0.43l16.389,12.429 c0.855-0.464,3.002-1.605,5.756-2.902c3.773-1.778,9.291-4.13,14.155-5.238c0.317-0.069,0.64,0.082,0.783,0.372 c0.144,0.291,0.069,0.642-0.18,0.849C46.294,57.308,37.688,65.767,33.437,71.766l-1.093,3.602l17.251-11.999 C49.716,63.284,49.856,63.242,49.996,63.242z M43.875,51.944h0.01H43.875z"></path><path fill="#472b29" d="M72.5,44h-14c-0.276,0-0.5-0.224-0.5-0.5s0.224-0.5,0.5-0.5h14c0.276,0,0.5,0.224,0.5,0.5 S72.776,44,72.5,44z"></path><path fill="#472b29" d="M39.5,44h-12c-0.276,0-0.5-0.224-0.5-0.5s0.224-0.5,0.5-0.5h12c0.276,0,0.5,0.224,0.5,0.5 S39.776,44,39.5,44z"></path><path fill="#472b29" d="M54.731,41.375c-0.212,0-0.409-0.136-0.477-0.35l-1.977-6.25c-0.083-0.263,0.062-0.544,0.326-0.627 c0.265-0.082,0.544,0.062,0.627,0.326l1.977,6.25c0.083,0.263-0.062,0.544-0.326,0.627C54.832,41.367,54.781,41.375,54.731,41.375 z"></path><path fill="#472b29" d="M51.453,31.25c-0.216,0-0.416-0.142-0.48-0.359l-0.953-3.25c-0.078-0.265,0.074-0.543,0.339-0.62 c0.267-0.075,0.543,0.074,0.621,0.339l0.953,3.25c0.078,0.265-0.074,0.543-0.339,0.62C51.547,31.243,51.5,31.25,51.453,31.25z"></path><path fill="#472b29" d="M64.109,70.75c-0.213,0-0.41-0.137-0.477-0.351l-4.379-14c-0.083-0.264,0.064-0.544,0.328-0.627 c0.265-0.084,0.544,0.064,0.626,0.328l4.379,14c0.083,0.264-0.064,0.544-0.328,0.627C64.208,70.743,64.158,70.75,64.109,70.75z"></path>
</svg>
